<svg width="29" height="25" viewBox="0 0 29 25" fill="none" xmlns="http://www.w3.org/2000/svg">
<path d="M26.2121 6.03141L22.7044 15.1515H8.50737L5.47703 0H0V2.2727H3.61389L6.64418 17.4243H24.2653L28.3334 6.84732L26.2121 6.03141Z" fill="white"/>
<path d="M10.6061 18.1819C8.7263 18.1819 7.19702 19.7111 7.19702 21.591C7.19702 23.4708 8.72636 25 10.6061 25C12.4859 25 14.0152 23.4708 14.0152 21.591C14.0152 19.7111 12.4858 18.1819 10.6061 18.1819ZM10.6061 22.7273C9.9795 22.7273 9.46972 22.2176 9.46972 21.591C9.46972 20.9643 9.9795 20.4546 10.6061 20.4546C11.2327 20.4546 11.7425 20.9643 11.7425 21.591C11.7425 22.2176 11.2327 22.7273 10.6061 22.7273Z" fill="white"/>
<path d="M20.4545 18.1819C18.5747 18.1819 17.0454 19.7111 17.0454 21.591C17.0454 23.4708 18.5747 25 20.4545 25C22.3343 25 23.8636 23.4708 23.8636 21.591C23.8636 19.7111 22.3342 18.1819 20.4545 18.1819ZM20.4545 22.7273C19.8279 22.7273 19.3181 22.2176 19.3181 21.591C19.3181 20.9643 19.8279 20.4546 20.4545 20.4546C21.0811 20.4546 21.5909 20.9643 21.5909 21.591C21.5909 22.2176 21.0811 22.7273 20.4545 22.7273Z" fill="white"/>
<path d="M20.8134 4.11183C20.5475 3.35502 20.1793 2.70047 19.7088 2.14819C19.2384 1.59591 18.679 1.16322 18.0316 0.84934C17.3838 0.535791 16.6848 0.378906 15.935 0.378906C15.1711 0.378906 14.4689 0.535791 13.8282 0.84934C13.187 1.16322 12.6316 1.59591 12.1612 2.14819C11.6907 2.70047 11.3225 3.35502 11.0566 4.11183C10.7907 4.86864 10.6577 5.69706 10.6577 6.59709C10.6577 7.49706 10.7907 8.32548 11.0566 9.08229C11.3225 9.8391 11.6907 10.4936 12.1612 11.0459C12.6316 11.5981 13.1871 12.0277 13.8282 12.3345C14.4689 12.6413 15.1711 12.7948 15.935 12.7948C16.6848 12.7948 17.3837 12.6414 18.0316 12.3345C18.6791 12.0277 19.2384 11.5981 19.7088 11.0459C20.1793 10.4936 20.5475 9.8391 20.8134 9.08229C21.0793 8.32548 21.2123 7.49706 21.2123 6.59703C21.2122 5.69706 21.0793 4.86864 20.8134 4.11183ZM18.2668 8.09023C18.144 8.54025 17.9702 8.92889 17.7452 9.25616C17.5203 9.58344 17.2543 9.83584 16.9475 10.013C16.6407 10.1903 16.3032 10.2789 15.935 10.2789C15.5531 10.2789 15.2089 10.1903 14.9021 10.013C14.5953 9.83595 14.3294 9.58344 14.1044 9.25616C13.8794 8.92889 13.7055 8.54025 13.5828 8.09023C13.4601 7.64022 13.3987 7.14256 13.3987 6.59703C13.3987 6.05178 13.4601 5.55069 13.5828 5.09365C13.7055 4.63699 13.8794 4.24481 14.1044 3.91753C14.3294 3.59026 14.5953 3.33814 14.9021 3.16072C15.2089 2.9837 15.5531 2.89482 15.935 2.89482C16.3032 2.89482 16.6407 2.9837 16.9475 3.16072C17.2543 3.33814 17.5203 3.59026 17.7452 3.91753C17.9702 4.24481 18.1441 4.63694 18.2668 5.09365C18.3895 5.55069 18.4509 6.05184 18.4509 6.59703C18.4509 7.14262 18.3895 7.64028 18.2668 8.09023Z" fill="white"/>
</svg>
